<svg width="16" height="16" fill="none" xmlns="http://www.w3.org/2000/svg"><path fill="#fff" d="M0 0h16v16H0z"/><g clip-path="url(#clip0)" fill="#010101"><path d="M9.96 8.13h-.2c0 1.09-.85 1.99-1.94 2.08h-.15v.01h-.01v.2h.17c1.07.08 1.92.99 1.92 2.09h.2c0-1.09.85-1.99 1.94-2.08h.15v-.01h.01v-.2h-.17a2.094 2.094 0 01-1.92-2.09z"/><path d="M14.01 4.63H6.87V0h-.2c0 2.55-2.32 4.63-5.16 4.63H1v.2h2.19v9.67c-.12.74-.76 1.3-1.53 1.3H1v.2h8.14v-.2h-.73c-.85 0-1.55-.69-1.55-1.55V4.83h1.37c2.91 0 5.26 2.25 5.57 5.36l.2-.01V4.63h.01z"/></g><defs><clipPath id="clip0"><path fill="#fff" transform="translate(1)" d="M0 0h13.01v16H0z"/></clipPath></defs></svg>