<svg width="32" height="32" fill="none" xmlns="http://www.w3.org/2000/svg"><path d="M16.129 3.414c4.113 0 4.6.016 6.225.09 1.501.068 2.318.32 2.86.53.72.28 1.232.613 1.772 1.153s.873 1.052 1.153 1.772c.21.542.462 1.359.53 2.86.074 1.624.09 2.112.09 6.225 0 4.113-.016 4.601-.09 6.226-.068 1.5-.32 2.318-.53 2.86a4.765 4.765 0 01-1.153 1.771c-.54.54-1.052.874-1.772 1.154-.542.21-1.359.461-2.86.53-1.624.073-2.112.09-6.225.09-4.114 0-4.601-.017-6.226-.09-1.501-.069-2.318-.32-2.86-.53A4.764 4.764 0 015.272 26.9a4.764 4.764 0 01-1.154-1.77c-.21-.543-.461-1.36-.53-2.861-.073-1.625-.09-2.113-.09-6.226 0-4.113.017-4.6.09-6.225.069-1.501.32-2.318.53-2.86.28-.72.614-1.232 1.154-1.772a4.764 4.764 0 011.77-1.153c.543-.21 1.36-.462 2.861-.53 1.625-.076 2.11-.09 6.226-.09zm0-2.778c-4.185 0-4.71.017-6.351.092-1.641.076-2.759.337-3.74.716A7.542 7.542 0 003.312 3.22a7.55 7.55 0 00-1.776 2.727c-.381.98-.642 2.1-.715 3.74-.076 1.643-.092 2.166-.092 6.35 0 4.184.016 4.71.092 6.351s.336 2.759.715 3.739a7.541 7.541 0 001.776 2.728 7.55 7.55 0 002.728 1.776c.98.381 2.1.642 3.739.715 1.643.076 2.166.092 6.35.092 4.185 0 4.71-.016 6.352-.092 1.64-.076 2.758-.336 3.738-.715a7.541 7.541 0 002.728-1.776 7.551 7.551 0 001.776-2.728c.381-.98.642-2.1.715-3.739.076-1.643.093-2.167.093-6.35 0-4.185-.017-4.71-.093-6.352-.075-1.64-.336-2.758-.715-3.739a7.543 7.543 0 00-1.776-2.727 7.55 7.55 0 00-2.728-1.776c-.98-.382-2.1-.642-3.738-.716-1.644-.073-2.17-.092-6.351-.092z" fill="#fff"/><path d="M16.129 8.133a7.912 7.912 0 100 15.824 7.912 7.912 0 000-15.824zm0 13.045a5.136 5.136 0 110-10.272 5.136 5.136 0 010 10.272zM24.35 9.67a1.85 1.85 0 100-3.699 1.85 1.85 0 000 3.699z" fill="#fff"/></svg>