<svg width="159" height="91" fill="none" xmlns="http://www.w3.org/2000/svg"><path d="M13.692 10.483a4.976 4.976 0 00-.165 2.107c.11.748.348 1.45.796 2.06.266.356.605.63.934.922.64.574 1.254 1.185 1.886 1.769.915.839 1.803 1.705 2.728 2.544.366.328.687.702 1.09.994.283.2.65.173.85-.064a1.64 1.64 0 00.367-.666c.192-.693.238-1.404.348-2.106.302-1.997.586-3.985.87-5.982.1-.693.283-1.368.182-2.08-.1-.738-.265-1.449-.714-2.069-1.492-2.043-2.993-4.076-4.494-6.11-.238-.328-.467-.656-.779-.93-.476-.42-1.025-.3-1.272.283a1.115 1.115 0 00-.064.182 550.36 550.36 0 00-1.007 3.584c-.522 1.851-1.025 3.711-1.556 5.562zm7.488 5.608c.311.274.449.639.55 1.022.137.583.173 1.176-.01 1.76-.018.045-.027.09-.046.127-.11.21-.238.402-.494.429-.256.027-.43-.137-.558-.337-.43-.62-.531-1.323-.467-2.061.036-.465.137-.702.338-.912.211-.237.44-.246.687-.027zm-1.501-6.62c.22.228.384.593.485.994.146.52.174 1.04.046 1.569a.894.894 0 01-.202.392c-.238.255-.512.273-.778.045-.256-.219-.421-.501-.54-.811-.21-.575-.302-1.158-.183-1.77.018-.09.046-.19.082-.282.22-.492.632-.584 1.09-.137zm-2.856-6.574c.055-.274.128-.547.439-.648.284-.091.485.073.677.256.458.465.641 1.057.751 1.687.055.337.046.665-.046.984-.064.247-.174.465-.448.52-.266.055-.467-.091-.632-.273-.403-.42-.586-.93-.705-1.487a2.34 2.34 0 01-.037-1.04z" fill="url(#paint0_linear)"/><path d="M.802 15.088c.302-.045.595-.082.898-.127l4.998-.848c.696-.119 1.382-.283 2.078-.347 1.117-.09 2.032-.538 2.893-1.413.357-.401.75-.921.952-1.55.311-.967.558-1.943.86-2.91.44-1.394.797-2.817 1.236-4.212.275-.857.504-1.733.742-2.599.064-.246.073-.492-.074-.72-.229-.356-.585-.402-.952-.338-.558.1-1.08.32-1.61.51-.925.347-1.85.703-2.784 1.022a87.25 87.25 0 00-1.977.72c-.449.174-.897.365-1.355.493-1.318.383-2.289 1.185-2.884 2.417-.357.738-.677 1.495-1.007 2.252-.87 1.979-1.748 3.957-2.609 5.936-.174.383-.274.793-.155 1.222a.69.69 0 00.75.492zM11.312 2.97c.137-.347.348-.639.613-.93.412-.374.87-.74 1.474-.84.577-.1.915.283.75.84-.155.501-.485.893-.87 1.23-.356.31-.759.548-1.226.639-.265.055-.53.055-.714-.2-.165-.22-.128-.484-.027-.74zm-.888 6.219c.366-.11.741-.137 1.025.21.247.291.21.629.119.966-.137.474-.394.875-.769 1.258-.375.365-.833.684-1.41.785-.558.1-.98-.237-.98-.803 0-.447.193-.839.431-1.194.394-.575.897-1.022 1.584-1.222zM7.952 6.17c.165-.054.33-.09.503-.064.303.037.458.21.476.502.01.392-.146.739-.357 1.058-.375.556-.85.985-1.5 1.203a1.012 1.012 0 01-.468.046c-.274-.027-.43-.2-.457-.501-.028-.383.137-.712.338-1.022a1.76 1.76 0 01.257-.337c.375-.42.741-.73 1.208-.885zm-3.58-.62c.092-.447.376-.793.66-1.13.32-.283.631-.557 1.043-.684.11-.028.22-.046.33-.046.247.01.375.137.394.374.018.356-.129.647-.33.92-.375.52-.824.958-1.465 1.159-.183.055-.357.064-.512-.064-.165-.146-.165-.337-.12-.529zM1.48 12.234a3.11 3.11 0 01.476-.62c.247-.237.503-.456.815-.602.265-.118.567-.21.814 0 .248.21.238.511.147.803-.266.884-.824 1.532-1.648 1.942a.983.983 0 01-.357.091c-.32.028-.55-.155-.577-.474-.036-.428.128-.793.33-1.14z" fill="url(#paint1_linear)"/><path d="M20.31 21.453a1.297 1.297 0 00-.183-.2c-.595-.465-1.108-1.012-1.675-1.514-.824-.739-1.63-1.486-2.444-2.234-.568-.51-1.145-1.021-1.685-1.56a5.163 5.163 0 00-1.931-1.24c-.824-.291-1.676-.474-2.545-.337-2.856.456-5.713.94-8.569 1.423a1.496 1.496 0 00-.448.127c-.303.155-.376.383-.22.684.073.155.201.256.311.374.1.091.192.183.293.255.449.31.906.62 1.364.93 1.73 1.177 3.451 2.344 5.172 3.52.998.684 2.097 1.04 3.305 1.013 1.108-.028 2.225-.082 3.341-.11 1.236-.036 2.472-.064 3.717-.1.458-.01.916-.028 1.373-.055.21-.009.412-.064.614-.146.412-.191.485-.465.21-.83zm-10.042-5.635c.659-.091 1.648.246 2.224.739.577.492.504.948-.155 1.012-.66.055-1.657-.274-2.225-.739-.577-.474-.503-.92.156-1.012zM5.553 18.18c-.659.055-1.648-.2-2.215-.593-.568-.383-.494-.766.165-.857.659-.091 1.647.173 2.215.593.568.41.494.793-.165.857zm1.328-1.906c.659-.091 1.647.21 2.224.666.568.456.495.875-.165.93-.659.054-1.647-.237-2.224-.666-.568-.42-.494-.839.165-.93zm3.158 5.06c-.66-.008-1.657-.318-2.225-.71-.567-.383-.494-.712.165-.739.66-.027 1.657.292 2.225.711.567.41.494.739-.165.739zm3.396.028c-.659-.009-1.657-.355-2.224-.784-.568-.429-.495-.793.165-.812.659-.027 1.656.329 2.224.785.568.456.494.82-.165.811zm3.396.037c-.659-.01-1.656-.392-2.224-.858-.568-.465-.494-.866.165-.893.659-.027 1.657.365 2.224.857.568.492.495.894-.165.894z" fill="url(#paint2_linear)"/><path d="M86.772 63.746v-15c.201-1.952 1.473-3.41 3.304-3.775.815-.055 1.52-.137 2.152-.201h.375a5.204 5.204 0 00-2.655 4.532c0 2.872 2.353 5.216 5.237 5.216 2.883 0 5.236-2.344 5.236-5.216 0-2.143-1.31-3.985-3.159-4.787l.01-.019c-1.666-.747-3.113-.592-5.109-.383-.366.037-.769.083-1.19.119v-.01a5.24 5.24 0 00-.76.056c-.887.054-2.27.127-3.835.127H60.086v19.916c-.659 2.152-2.663 3.793-4.357 3.793v.666h13.484V50.579l.01-1.268c0-2.544 1.702-4.25 4.229-4.25 2.28 0 3.881 1.387 4.174 3.53 0 .018.01.045.01.063v20.117h14.279v-.666c-2.17 0-4.65-1.842-5.144-4.359zM42.263 42.645h-.669c0 3.63-2.846 6.62-6.444 6.894h-.513v.018h-.018v.666h.55c3.579.274 6.407 3.274 6.407 6.94h.66c0-3.63 2.846-6.62 6.453-6.894h.513v-.018h.027v-.666h-.558c-3.58-.283-6.408-3.283-6.408-6.94z" fill="#fff"/><path d="M55.738 31.028H31.945V15.663h-.667c0 8.471-7.717 15.365-17.21 15.365h-1.676v.666h7.315v32.098a5.161 5.161 0 01-5.09 4.331h-2.225v.666H39.48v-.666h-2.39c-2.837 0-5.153-2.307-5.153-5.134V31.684h4.559c9.712 0 17.521 7.478 18.574 17.782l.659-.036V31.028h.01zm8.926 9.648c2.673 0 4.843-2.162 4.843-4.824 0-2.663-2.17-4.824-4.843-4.824s-4.843 2.161-4.843 4.824c-.009 2.663 2.17 4.824 4.843 4.824zm55.319 26.572c.156-.11.321-.21.477-.32 1.968-1.477 3.057-3.483 3.057-5.635 0-2.352-1.309-4.468-3.387-5.927v-.01s-.037-.017-.082-.054a9.994 9.994 0 00-1.126-.675c-2.133-1.285-6.5-3.939-8.203-5.097-.787-.529-1.217-1.304-1.217-2.18 0-1.513 1.382-2.744 3.076-2.744 2.151 0 4.128.593 5.684 1.577.037.028.083.064.129.092.64.474 2.508 2.106 3.222 5.261 0 .055.009.1.009.155h.028c.091.438.164.894.201 1.386l.668-.027v-9.666h-.668c0 1.723-1.071 2.617-2.133 2.617-.33 0-.65-.091-.925-.255-.027-.01-.045-.028-.073-.046a.772.772 0 00-.146-.1l-.009.009c-1.648-1.04-3.735-1.66-5.997-1.66-5.355 0-9.703 3.474-9.703 7.751 0 2.134 1.062 4.113 2.984 5.59.073.055.137.1.211.155 0 0 .009.01.027.01.238.172.485.337.751.492 1.748 1.14 6.014 3.939 7.818 5.27a2.925 2.925 0 011.226 2.417c0 1.623-1.355 2.881-3.085 2.881h-2.325v.52h.156c.21 0 .247.01.402.046.449.1.916.547.934 1.221l.019.858v14.872l-.028 1.386c0 .74-.064 1.222-.183 1.45-.119.22-.476.365-1.062.42l-.732.027v.483h9.832v-.483l-.724-.027c-.586-.064-.933-.21-1.062-.438-.119-.228-.183-.711-.183-1.432l-.027-1.386v-17.69c.796-.292 1.51-.657 2.169-1.094z" fill="#fff"/><path d="M103.433 79.613c0 .702.32 1.331.961 1.878.641.557 1.355.83 2.142.83.915 0 1.602-.228 2.069-.675.467-.456.696-1.048.696-1.787 0-.82-.303-1.541-.898-2.152-.595-.61-1.217-1.085-1.876-1.413a10.536 10.536 0 00-2.106-.785 9.915 9.915 0 00-2.453-.282c-2.362 0-4.34.684-5.923 2.051-1.584 1.368-2.38 3.174-2.38 5.417 0 2.225.805 4.021 2.426 5.371 1.61 1.359 3.57 2.034 5.877 2.034 3.497 0 5.914-1.487 7.268-4.46l-.457-.237a6.501 6.501 0 01-1.877 2.636c-.833.693-1.803 1.04-2.911 1.04-1.556 0-2.646-.676-3.259-2.034-.613-1.359-.925-2.946-.925-4.77 0-.702.046-1.431.138-2.179.091-.757.238-1.45.457-2.097a4.789 4.789 0 01.888-1.623c.385-.438.861-.666 1.419-.666.44 0 .788.1 1.026.301.238.2.366.465.366.784 0 .338-.11.766-.33 1.268a3.58 3.58 0 00-.338 1.55zm53.745-2.371c-1.217-1.359-2.783-1.988-4.705-2.034-1.391-.036-2.243.265-2.774.602-.43.274-.842.803-1.062 1.204l.064-2.38v-6.329h-4.009c-1.09-.045-2.417.037-3.451-.337a4.397 4.397 0 01-.541-.21c-.457-.237-.787-.556-1.153-1.03-.998-1.258-1.584-3.073-1.584-5.243V50.022c0-2.735 2.097-4.96 4.669-4.96h3.277v-.666h-7.946V32.724h-.668c0 6.438-5.337 11.672-11.901 11.672v.666h3.442V61.95h.01c.164 3.693 3.643 6.73 8.129 7.267.466.055 1.318.119 1.803.119l2.691.036c.577 0 .934.247 1.108.456.174.21.256.557.256 1.095v14.106c.01.84.01 1.405 0 1.897-.054 1.395-1.016 2.334-2.425 2.334-1.273 0-2.179-.756-2.381-1.924 0-.009-.018-.155-.018-.237V75.51h-8.083v.484l.924.064c.659.082 1.099.237 1.319.483.219.237.384.693.384 1.358v9.52a3.485 3.485 0 01-.732 1.013c-.376.374-.852.602-1.492.602-.577 0-1.108-.238-1.401-.648-.293-.41-.458-.967-.458-1.787v-11.08h-8.074v.484l.842.064c.568.063.934.191 1.108.41.174.21.284.584.284 1.13v7.916c0 1.422.54 2.544 1.629 3.346a5.84 5.84 0 003.689 1.231c1.328 0 2.06-.082 2.985-.574.686-.365 1.263-.93 1.73-1.66v1.706l-.156.228h9.237c1.208 0 2.142-.32 2.6-.903.339-.429.467-1.414.751-1.696.567.638 1.281 1.285 2.142 1.924.869.638 2.096 1.021 3.652 1.021 2.362 0 4.266-.647 5.813-2.106 1.493-1.414 2.298-3.183 2.298-5.454 0-2.206-.604-3.984-1.822-5.343zm-4.403 8.626c-.064 1.04-.174 1.924-.513 2.654-.338.72-.842 1.085-1.501 1.085-.677 0-1.19-.347-1.519-1.04-.33-.693-.586-1.878-.586-4.322V82.23c0-.839.009-1.687.027-2.544.018-.857.073-1.505.147-1.96.082-.457.256-.767.54-1.122.283-.347.732-.611 1.355-.611.723 0 1.217.337 1.556.975.604 1.14.503 3.247.54 4.04.055.793.027 3.684-.046 4.86zm-49.049-16.824c2.325 0 4.22-1.888 4.22-4.204s-1.895-4.203-4.22-4.203c-2.326 0-4.22 1.887-4.22 4.203-.01 2.316 1.885 4.204 4.22 4.204z" fill="#fff"/><defs><linearGradient id="paint0_linear" x1=".384" y1="-7.679" x2="27.07" y2="19.023" gradientUnits="userSpaceOnUse"><stop stop-color="#00F"/><stop offset="1" stop-color="#0FF"/></linearGradient><linearGradient id="paint1_linear" x1="-3.596" y1="-3.698" x2="23.087" y2="23" gradientUnits="userSpaceOnUse"><stop stop-color="#00F"/><stop offset="1" stop-color="#0FF"/></linearGradient><linearGradient id="paint2_linear" x1="-8.005" y1=".706" x2="18.68" y2="27.407" gradientUnits="userSpaceOnUse"><stop stop-color="#00F"/><stop offset="1" stop-color="#0FF"/></linearGradient></defs></svg>