<svg width="24" height="24" fill="none" xmlns="http://www.w3.org/2000/svg"><path fill-rule="evenodd" clip-rule="evenodd" d="M7.456 3h9.07a5.517 5.517 0 013.987 1.773A5.568 5.568 0 0121.99 8.86l-.002 6.237a5.6 5.6 0 01-1.476 4.13A5.522 5.522 0 0116.517 21h-9.06C4.286 21 2 18.439 2 15.141V8.859C2 5.562 4.287 3 7.456 3zm9.052 1.528H7.456c-2.293 0-3.939 1.844-3.939 4.331v6.282c0 2.487 1.646 4.33 3.94 4.33h9.051a4.005 4.005 0 002.895-1.287 4.097 4.097 0 001.07-3.043l.002-6.327a4.064 4.064 0 00-1.072-2.998 4.005 4.005 0 00-2.895-1.288z" fill="#65656B"/><path fill-rule="evenodd" clip-rule="evenodd" d="M12.003 6.167a3.106 3.106 0 00-3.1 3.112 3.106 3.106 0 003.1 3.112 3.106 3.106 0 003.099-3.112 3.106 3.106 0 00-3.1-3.112zm0 .844A2.263 2.263 0 0114.26 9.28a2.263 2.263 0 01-2.258 2.268A2.263 2.263 0 019.744 9.28a2.263 2.263 0 012.258-2.268zm-1.269 6.635a9.746 9.746 0 00-1.364.193c-.873.18-1.572.539-1.869 1.136a1.71 1.71 0 00-.004 1.467c.286.59.903.924 1.736 1.11l.15.03c.44.1.898.167 1.36.198.04.012.133.022.235.028l.084.003.166.001a14.66 14.66 0 002.037-.032 9.148 9.148 0 001.096-.143l.273-.057c.9-.177 1.573-.515 1.869-1.137a1.707 1.707 0 000-1.46c-.295-.622-.96-.956-1.876-1.145a9.893 9.893 0 00-1.092-.17l-.27-.022a14.402 14.402 0 00-2.53 0zm2.458.84l.008.001c.422.03.841.09 1.255.178.68.14 1.142.372 1.288.68a.86.86 0 010 .735c-.136.288-.55.51-1.15.646l-.132.028a8.41 8.41 0 01-1.26.184c-.654.055-1.303.065-1.95.03l-.23-.004a1.128 1.128 0 01-.167-.02A9.046 9.046 0 019.76 16.8l-.205-.044c-.683-.134-1.149-.367-1.3-.68a.86.86 0 010-.729c.148-.295.641-.549 1.287-.682a8.98 8.98 0 011.258-.178 13.65 13.65 0 012.392 0z" fill="#65656B"/><path d="M9.37 13.839l.05.245h.002l-.052-.245zm1.364-.194l.018.25h.004l-.022-.25zm-3.233 1.33l-.224-.112-.001.004.225.108zm-.167.736h.25-.25zm.163.731l-.226.107.001.002.225-.109zm1.736 1.11l-.054.244h.003l.051-.244zm.15.03l.054-.243-.004-.001-.05.245zm1.36.198l.07-.24-.026-.007-.027-.002-.017.25zm.235.028l-.013.25h.004l.01-.25zm.084.003l-.01.25h.005l.005-.25zm.166.001l.014-.25h-.014v.25zm2.037-.032l-.018-.25h-.004l.021.25zm1.096-.143l.047.246.004-.001-.05-.245zm.273-.057l-.048-.245h-.003l.051.245zm1.869-1.137l.226.107-.226-.107zm0-1.46l.226-.108-.226.107zm-1.876-1.145l-.052.245h.002l.05-.245zm-1.092-.17l.024-.249h-.003l-.021.25zm-.27-.022l-.021.248.022-.248zm-.065.841l-.02.25h.002l.018-.25zm-.008 0l-.022.249h.002l.02-.25zm1.263.178l-.052.244h.002l.05-.244zm1.288.68l.226-.107-.226.107zm0 .735l.226.107-.226-.107zm-1.15.646l.052.245.003-.001-.055-.244zm-.132.028l-.051-.245-.003.001.054.244zm-1.26.184l-.018-.25h-.004l.021.25zm-1.95.03l.013-.25h-.01l-.004.25zm-.23-.004l-.013.25h.009l.004-.25zm-.167-.02l.049-.244-.015-.003-.016-.001-.018.249zM9.76 16.8l-.051.244.003.001.048-.245zm-.205-.044l.051-.244-.003-.001-.048.245zm-1.3-.68l-.226.107.001.003.225-.11zm-.08-.366h.25-.25zm.08-.363l-.223-.111-.002.003.226.108zm1.287-.682l.05.245h.002l-.052-.245zm1.258-.178l.018.25h.004l-.022-.25zM9.154 9.28a2.856 2.856 0 012.849-2.862v-.5a3.356 3.356 0 00-3.35 3.362h.5zm2.849 2.862a2.856 2.856 0 01-2.85-2.862h-.5a3.356 3.356 0 003.35 3.362v-.5zm2.849-2.862a2.856 2.856 0 01-2.85 2.862v.5a3.356 3.356 0 003.35-3.362h-.5zm-2.85-2.862a2.856 2.856 0 012.85 2.862h.5a3.356 3.356 0 00-3.35-3.362v.5zm2.509 2.862a2.513 2.513 0 00-2.508-2.518v.5c1.108 0 2.008.902 2.008 2.018h.5zm-2.508 2.518a2.513 2.513 0 002.508-2.518h-.5c0 1.115-.9 2.018-2.008 2.018v.5zM9.495 9.279a2.513 2.513 0 002.508 2.518v-.5a2.013 2.013 0 01-2.008-2.018h-.5zm2.508-2.518A2.513 2.513 0 009.495 9.28h.5c0-1.116.9-2.018 2.008-2.018v-.5zm-2.58 7.322c.44-.094.887-.158 1.329-.188l-.035-.499a10 10 0 00-1.4.198l.105.49zm-1.698 1.003c.245-.491.845-.827 1.695-1.002l-.1-.49c-.896.184-1.693.567-2.043 1.27l.448.222zm-.141.625a1.43 1.43 0 01.142-.628l-.45-.216a1.931 1.931 0 00-.192.845l.5-.001zm.14.624a1.46 1.46 0 01-.14-.623h-.5c0 .288.063.575.187.837l.452-.213zm1.563.973c-.807-.18-1.33-.488-1.565-.975l-.45.218c.336.694 1.047 1.054 1.907 1.245l.108-.488zm.146.03l-.149-.031-.102.49.15.03.101-.489zm1.327.193a8.722 8.722 0 01-1.323-.192l-.11.488c.453.102.924.17 1.399.203l.034-.5zm.23.027a1.987 1.987 0 01-.124-.01.47.47 0 01-.053-.008l-.14.48c.07.021.192.032.292.037l.026-.499zm.082.003l-.084-.003-.02.5.085.003.019-.5zm.156.001l-.16-.001-.011.5.17.001v-.5zm2.015-.031c-.673.057-1.35.067-2.001.032l-.028.499c.676.037 1.375.026 2.072-.033l-.043-.498zm1.071-.14a8.88 8.88 0 01-1.066.14l.034.498a9.398 9.398 0 001.127-.146l-.095-.491zm.27-.055l-.274.056.102.49.273-.057-.102-.49zm1.693-1c-.243.511-.813.826-1.691 1l.096.49c.922-.182 1.699-.543 2.047-1.276l-.452-.214zm0-1.247c.186.395.186.852 0 1.247l.452.214c.25-.53.25-1.145 0-1.675l-.452.214zm-1.7-1.006c.896.184 1.458.496 1.7 1.006l.452-.214c-.347-.732-1.116-1.09-2.051-1.282l-.101.49zm-1.067-.166c.359.035.715.09 1.065.165l.104-.489a10.127 10.127 0 00-1.12-.174l-.049.498zm-.265-.022l.269.022.042-.498-.27-.023-.041.499zm-2.489 0a14.16 14.16 0 012.488 0l.044-.499a14.67 14.67 0 00-2.576 0l.044.498zm2.463.343h-.007l-.04.498h.008l.04-.498zm1.288.182a9.305 9.305 0 00-1.29-.182l-.035.499c.41.029.819.086 1.221.172l.104-.489zm1.462.818c-.105-.223-.31-.39-.554-.518a3.54 3.54 0 00-.91-.3l-.1.49c.326.067.588.154.78.254.194.101.292.203.333.288l.451-.214zm0 .949c.143-.3.143-.649 0-.949l-.451.214a.609.609 0 010 .521l.451.214zm-1.32.783c.313-.071.591-.168.814-.291.22-.123.407-.283.506-.492l-.451-.214c-.038.079-.127.174-.298.268a2.636 2.636 0 01-.683.241l.111.488zm-.136.029l.132-.028-.104-.49-.131.028.103.49zm-1.296.188c.434-.03.865-.092 1.299-.189l-.109-.488c-.41.091-.816.15-1.224.178l.034.5zm-1.98.03c.66.037 1.32.026 1.985-.03l-.043-.498c-.641.054-1.28.064-1.915.03l-.027.499zm-.22-.003l.23.004.008-.5-.23-.004-.008.5zm-.213-.024c.065.013.131.02.204.024l.026-.5a.89.89 0 01-.131-.014l-.099.49zm-1.092-.145c.355.07.72.119 1.123.15l.037-.5a8.816 8.816 0 01-1.063-.14l-.097.49zm-.21-.044l.207.043.103-.489-.206-.043-.103.489zm-1.472-.815c.109.224.315.392.56.52.25.128.561.226.917.296l.096-.491a2.985 2.985 0 01-.782-.25c-.196-.1-.298-.204-.34-.293l-.45.218zm-.106-.476c0 .164.036.328.105.473l.452-.213a.61.61 0 01-.057-.26h-.5zm.106-.471a1.08 1.08 0 00-.106.472l.5-.001c0-.09.02-.177.057-.255l-.45-.216zm1.462-.819c-.34.07-.648.174-.896.304-.242.127-.456.296-.564.512l.448.223c.039-.08.145-.185.348-.292.197-.104.458-.194.764-.257l-.1-.49zm1.29-.182a9.22 9.22 0 00-1.292.183l.104.489a8.71 8.71 0 011.224-.173l-.035-.5zm2.432 0a13.839 13.839 0 00-2.436 0l.044.498c.787-.069 1.57-.069 2.348 0l.044-.498z" fill="#65656B"/></svg>