<svg width="16" height="16" viewBox="0 0 16 16" fill="none" xmlns="http://www.w3.org/2000/svg">
<rect width="16" height="16" fill="white"/>
<g clip-path="url(#clip0)">
<path d="M9.95991 8.13H9.75991C9.75991 9.22 8.90991 10.12 7.81991 10.21H7.66991V10.22C7.66991 10.22 7.66991 10.22 7.65991 10.22V10.42H7.82991C8.89991 10.5 9.74991 11.41 9.74991 12.51H9.94991C9.94991 11.42 10.7999 10.52 11.8899 10.43H12.0399V10.42C12.0399 10.42 12.0399 10.42 12.0499 10.42V10.22H11.8799C10.8099 10.14 9.95991 9.23 9.95991 8.13Z" fill="#010101"/>
<path d="M14.01 4.63H12.7H8.23H6.87V0H6.67C6.67 2.55 4.35 4.63 1.51 4.63H1V4.83H1.5H3.19V14.5C3.07 15.24 2.43 15.8 1.66 15.8H1V16H1.67H3.2H3.32H5.04H5.1H6.77H6.87H8.42H9.14V15.8H8.41C7.56 15.8 6.86 15.11 6.86 14.25V13.86V4.83H8.23C11.14 4.83 13.49 7.08 13.8 10.19L14 10.18V4.63H14.01Z" fill="#010101"/>
</g>
<defs>
<clipPath id="clip0">
<rect width="13.01" height="16" fill="white" transform="translate(1)"/>
</clipPath>
</defs>
</svg>
