<svg width="32" height="32" viewBox="0 0 32 32" fill="none" xmlns="http://www.w3.org/2000/svg">
<path d="M16.1286 3.41371C20.2418 3.41371 20.7296 3.43028 22.354 3.50369C23.8552 3.57236 24.6722 3.82336 25.2144 4.03411C25.9343 4.31353 26.4458 4.6474 26.9857 5.1873C27.5256 5.72719 27.8594 6.23866 28.1389 6.95852C28.3496 7.50078 28.6006 8.31772 28.6693 9.81899C28.7427 11.4434 28.7593 11.9312 28.7593 16.0443C28.7593 20.1574 28.7427 20.6452 28.6693 22.2696C28.6006 23.7709 28.3496 24.5879 28.1389 25.1301C27.8594 25.85 27.5256 26.3614 26.9857 26.9013C26.4458 27.4412 25.9343 27.7751 25.2144 28.0545C24.6722 28.2653 23.8552 28.5163 22.354 28.5849C20.7296 28.6584 20.2418 28.6749 16.1286 28.6749C12.0155 28.6749 11.5277 28.6584 9.90332 28.5849C8.40204 28.5163 7.5851 28.2653 7.04284 28.0545C6.32299 27.7751 5.81151 27.4412 5.27162 26.9013C4.73173 26.3614 4.39785 25.85 4.11843 25.1301C3.90769 24.5879 3.65668 23.7709 3.58801 22.2696C3.51461 20.6452 3.49803 20.1574 3.49803 16.0443C3.49803 11.9312 3.51461 11.4434 3.58801 9.81899C3.65668 8.31772 3.90769 7.50078 4.11843 6.95852C4.39785 6.23866 4.73173 5.72719 5.27162 5.1873C5.81151 4.6474 6.32299 4.31353 7.04284 4.03411C7.5851 3.82336 8.40204 3.57236 9.90332 3.50369C11.5277 3.42791 12.0132 3.41371 16.1286 3.41371ZM16.1286 0.636108C11.9445 0.636108 11.4188 0.652683 9.77782 0.728457C8.13683 0.804231 7.01916 1.06471 6.03884 1.44358C5.02536 1.83666 4.16579 2.36471 3.31097 3.21953C2.45377 4.07673 1.92809 4.93629 1.53501 5.9474C1.15377 6.92773 0.893296 8.04777 0.81989 9.68639C0.744115 11.3297 0.727539 11.8531 0.727539 16.0372C0.727539 20.2214 0.744115 20.7471 0.81989 22.388C0.895664 24.029 1.15614 25.1467 1.53501 26.127C1.92809 27.1405 2.45614 28.0001 3.31097 28.8549C4.16816 29.7121 5.02772 30.2378 6.03884 30.6308C7.01916 31.0121 8.1392 31.2726 9.77782 31.346C11.4212 31.4217 11.9445 31.4383 16.1286 31.4383C20.3128 31.4383 20.8385 31.4217 22.4795 31.346C24.1205 31.2702 25.2381 31.0097 26.2185 30.6308C27.2319 30.2378 28.0915 29.7097 28.9463 28.8549C29.8035 27.9977 30.3292 27.1381 30.7223 26.127C31.1035 25.1467 31.364 24.0267 31.4374 22.388C31.5132 20.7447 31.5297 20.2214 31.5297 16.0372C31.5297 11.8531 31.5132 11.3274 31.4374 9.68639C31.3616 8.0454 31.1012 6.92773 30.7223 5.9474C30.3292 4.93393 29.8011 4.07436 28.9463 3.21953C28.0891 2.36234 27.2296 1.83666 26.2185 1.44358C25.2381 1.06234 24.1181 0.801863 22.4795 0.728457C20.8361 0.655051 20.3104 0.636108 16.1286 0.636108Z" fill="white"/>
<path d="M16.1286 8.13306C11.7597 8.13306 8.21729 11.6755 8.21729 16.0444C8.21729 20.4132 11.7597 23.9557 16.1286 23.9557C20.4974 23.9557 24.0399 20.4132 24.0399 16.0444C24.0399 11.6755 20.4974 8.13306 16.1286 8.13306ZM16.1286 21.1781C13.2918 21.1781 10.9925 18.8788 10.9925 16.042C10.9925 13.2052 13.2918 10.9059 16.1286 10.9059C18.9654 10.9059 21.2647 13.2052 21.2647 16.042C21.2647 18.8788 18.963 21.1781 16.1286 21.1781Z" fill="white"/>
<path d="M24.3503 9.6698C25.3717 9.6698 26.1997 8.84181 26.1997 7.82043C26.1997 6.79906 25.3717 5.97107 24.3503 5.97107C23.329 5.97107 22.501 6.79906 22.501 7.82043C22.501 8.84181 23.329 9.6698 24.3503 9.6698Z" fill="white"/>
</svg>
