<svg width="159" height="91" viewBox="0 0 159 91" fill="none" xmlns="http://www.w3.org/2000/svg">
<path d="M13.6917 10.4835C13.4903 11.1765 13.4263 11.8786 13.5269 12.5899C13.6368 13.3376 13.8748 14.0398 14.3234 14.6507C14.5889 15.0064 14.9276 15.2799 15.2571 15.5717C15.8979 16.1462 16.5113 16.7572 17.1429 17.3408C18.0584 18.1797 18.9464 19.046 19.8709 19.8849C20.2371 20.2132 20.5575 20.5871 20.9603 20.8789C21.2441 21.0795 21.6103 21.0521 21.8117 20.815C21.9765 20.6235 22.1138 20.4047 22.1779 20.1494C22.3701 19.4563 22.4159 18.7451 22.5257 18.0429C22.8278 16.0459 23.1116 14.058 23.3954 12.061C23.4961 11.368 23.6792 10.6932 23.5785 9.98193C23.4778 9.24331 23.313 8.53204 22.8644 7.91197C21.3723 5.86936 19.8709 3.83588 18.3696 1.80239C18.1316 1.47412 17.9028 1.14584 17.5915 0.87228C17.1155 0.452816 16.5662 0.57136 16.319 1.15496C16.2916 1.20967 16.2733 1.27351 16.255 1.33734C15.9162 2.5319 15.5775 3.72645 15.248 4.92101C14.7262 6.77212 14.2227 8.63235 13.6917 10.4835ZM21.18 16.0915C21.4913 16.3651 21.6286 16.7298 21.7293 17.1128C21.8666 17.6964 21.9032 18.2891 21.7201 18.8727C21.7018 18.9183 21.6927 18.9639 21.6744 19.0004C21.5645 19.2101 21.4363 19.4016 21.18 19.429C20.9237 19.4563 20.7498 19.2922 20.6216 19.0916C20.1914 18.4715 20.0907 17.7694 20.1547 17.0307C20.1913 16.5657 20.292 16.3286 20.4934 16.1189C20.704 15.8818 20.9329 15.8727 21.18 16.0915ZM19.6787 9.47128C19.8984 9.69925 20.0632 10.064 20.1639 10.4652C20.3104 10.985 20.3378 11.5048 20.2097 12.0337C20.173 12.1796 20.109 12.3163 20.0083 12.4258C19.7702 12.6811 19.4956 12.6993 19.2301 12.4714C18.9738 12.2525 18.809 11.9698 18.69 11.6598C18.4795 11.0853 18.3879 10.5017 18.5069 9.89074C18.5252 9.79955 18.5527 9.69925 18.5893 9.60806C18.809 9.11564 19.221 9.02446 19.6787 9.47128ZM16.8225 2.89665C16.8775 2.62308 16.9507 2.34952 17.2619 2.24921C17.5457 2.15803 17.7471 2.32216 17.9394 2.50454C18.3971 2.9696 18.5802 3.56232 18.69 4.19151C18.745 4.52891 18.7358 4.85718 18.6443 5.17634C18.5802 5.42254 18.4703 5.64139 18.1957 5.69611C17.9302 5.75082 17.7288 5.60492 17.564 5.42254C17.1612 5.00308 16.9782 4.49243 16.8591 3.93619C16.7768 3.59879 16.7493 3.25228 16.8225 2.89665Z" fill="url(#paint0_linear)"/>
<path d="M0.802402 15.0885C1.1045 15.0429 1.39744 15.0064 1.69953 14.9608C3.36563 14.6781 5.03173 14.3955 6.69783 14.1128C7.39357 13.9942 8.08015 13.8301 8.77588 13.7663C9.89272 13.6751 10.8082 13.2282 11.6687 12.3528C12.0257 11.9516 12.4193 11.4319 12.6207 10.8027C12.932 9.83607 13.1791 8.86036 13.4812 7.89377C13.9206 6.4986 14.2777 5.07607 14.7171 3.6809C14.9917 2.82374 15.2206 1.94834 15.4586 1.08205C15.5227 0.835847 15.5318 0.58964 15.3854 0.361671C15.1565 0.00603941 14.7995 -0.0395544 14.4333 0.0242769C13.8749 0.124583 13.3531 0.343434 12.8221 0.534928C11.8975 0.881441 10.9729 1.23707 10.0392 1.55623C9.38007 1.7842 8.72095 2.03041 8.06184 2.27661C7.61327 2.44987 7.16471 2.64136 6.70699 2.76903C5.38875 3.15201 4.41839 3.95446 3.82335 5.1855C3.46633 5.92412 3.14593 6.68098 2.81637 7.43783C1.9467 9.41661 1.06788 11.3954 0.207366 13.3741C0.0334324 13.7571 -0.0672659 14.1675 0.0517412 14.5961C0.134131 14.9152 0.472843 15.1341 0.802402 15.0885ZM11.3116 2.96964C11.449 2.62312 11.6595 2.33132 11.925 2.03952C12.3369 1.66565 12.7947 1.3009 13.3988 1.2006C13.9756 1.10029 14.3143 1.48328 14.1495 2.03952C13.9939 2.54106 13.6643 2.93316 13.2798 3.27056C12.9228 3.5806 12.52 3.81768 12.0532 3.90887C11.7877 3.96358 11.5222 3.96358 11.3391 3.70826C11.1743 3.48941 11.2109 3.22496 11.3116 2.96964ZM10.4237 9.18864C10.7898 9.07921 11.1652 9.05186 11.449 9.39837C11.6961 9.69017 11.6595 10.0276 11.568 10.365C11.4307 10.8391 11.1743 11.2404 10.799 11.6233C10.4237 11.9881 9.96595 12.3073 9.38922 12.4076C8.83081 12.5079 8.4097 12.1705 8.4097 11.6051C8.4097 11.1583 8.60195 10.7662 8.83996 10.4106C9.2336 9.83607 9.73709 9.38925 10.4237 9.18864ZM7.95198 6.17032C8.11676 6.11561 8.28154 6.07914 8.45547 6.10649C8.75757 6.14297 8.9132 6.31622 8.9315 6.60803C8.94066 7.00013 8.78503 7.34665 8.57448 7.6658C8.19915 8.22205 7.72312 8.65063 7.07316 8.86948C6.91754 8.92419 6.77107 8.93331 6.60629 8.91507C6.33166 8.88772 6.17603 8.71446 6.14857 8.41354C6.1211 8.03055 6.28588 7.70228 6.48728 7.39224C6.57882 7.24634 6.67952 7.10956 6.7436 7.05484C7.11893 6.63538 7.48511 6.32534 7.95198 6.17032ZM4.37262 5.55025C4.46416 5.10343 4.74795 4.75692 5.03173 4.41952C5.35214 4.13684 5.66338 3.86328 6.07533 3.73561C6.18518 3.70826 6.29504 3.69002 6.40489 3.69002C6.65206 3.69914 6.78022 3.8268 6.79853 4.06389C6.81684 4.41952 6.67037 4.71132 6.46897 4.98488C6.09364 5.50465 5.64508 5.94236 5.00427 6.14297C4.82118 6.19768 4.64725 6.2068 4.49162 6.07914C4.32684 5.93324 4.32684 5.74174 4.37262 5.55025ZM1.47983 12.2343C1.61714 12.0155 1.76361 11.7966 1.95586 11.6142C2.20302 11.3771 2.45935 11.1583 2.7706 11.0124C3.03607 10.8938 3.33817 10.8027 3.58534 11.0124C3.83251 11.2221 3.82335 11.523 3.73181 11.8148C3.46633 12.6994 2.90791 13.3468 2.08402 13.7571C1.97416 13.8118 1.846 13.8392 1.727 13.8483C1.40659 13.8757 1.17773 13.6933 1.15027 13.3741C1.11365 12.9456 1.27843 12.5808 1.47983 12.2343Z" fill="url(#paint1_linear)"/>
<path d="M20.3101 21.4534C20.2552 21.3805 20.1911 21.3075 20.1271 21.2528C19.532 20.7877 19.0194 20.2406 18.4518 19.7391C17.6279 19.0005 16.8223 18.2527 16.0076 17.505C15.44 16.9943 14.8633 16.4837 14.3232 15.9457C13.7648 15.3894 13.1331 14.97 12.3916 14.7055C11.5677 14.4137 10.7163 14.2313 9.84667 14.3681C6.9905 14.8241 4.13433 15.3074 1.27816 15.7906C1.12253 15.818 0.966908 15.8454 0.829592 15.9183C0.527497 16.0733 0.454261 16.3013 0.609886 16.6022C0.683121 16.7572 0.811283 16.8575 0.921136 16.9761C1.02183 17.0673 1.11338 17.1585 1.21408 17.2314C1.66264 17.5415 2.12036 17.8515 2.57808 18.1615C4.30826 19.3378 6.02929 20.5051 7.75032 21.6814C8.74814 22.3653 9.84667 22.7209 11.0551 22.6936C12.1627 22.6662 13.2796 22.6115 14.3964 22.5841C15.6322 22.5477 16.8681 22.5203 18.1131 22.4838C18.5708 22.4747 19.0285 22.4565 19.4863 22.4291C19.6968 22.42 19.8982 22.3653 20.0996 22.2832C20.5115 22.0917 20.5848 21.8182 20.3101 21.4534ZM10.2678 15.818C10.9269 15.7268 11.9156 16.0642 12.4923 16.5566C13.069 17.049 12.9958 17.505 12.3367 17.5688C11.6776 17.6235 10.6797 17.2952 10.1122 16.8302C9.53542 16.356 9.60866 15.9092 10.2678 15.818ZM5.55326 18.1798C4.89414 18.2345 3.90547 17.9792 3.3379 17.587C2.77032 17.2041 2.84356 16.8211 3.50268 16.7299C4.16179 16.6387 5.15047 16.9031 5.71804 17.3226C6.28561 17.7329 6.21238 18.1159 5.55326 18.1798ZM6.88065 16.2739C7.53976 16.1828 8.52844 16.4837 9.10517 16.9396C9.67274 17.3956 9.5995 17.815 8.94039 17.8697C8.28127 17.9244 7.2926 17.6326 6.71587 17.2041C6.1483 16.7846 6.22153 16.3651 6.88065 16.2739ZM10.0389 21.3349C9.3798 21.3257 8.38197 21.0157 7.8144 20.6236C7.24682 20.2406 7.32006 19.9123 7.97918 19.885C8.63829 19.8576 9.63612 20.1768 10.2037 20.5962C10.7713 21.0066 10.698 21.3349 10.0389 21.3349ZM13.4352 21.3622C12.7761 21.3531 11.7782 21.0066 11.2107 20.578C10.6431 20.1494 10.7163 19.7847 11.3755 19.7664C12.0346 19.7391 13.0324 20.0947 13.6 20.5506C14.1675 21.0066 14.0943 21.3713 13.4352 21.3622ZM16.8315 21.3987C16.1724 21.3896 15.1745 21.0066 14.607 20.5415C14.0394 20.0765 14.1126 19.6752 14.7717 19.6479C15.4309 19.6205 16.4287 20.0126 16.9963 20.5051C17.5638 20.9975 17.4906 21.3987 16.8315 21.3987Z" fill="url(#paint2_linear)"/>
<path d="M86.7716 63.7461V48.7457C86.973 46.7943 88.2454 45.3353 90.0763 44.9706C90.8911 44.9158 91.5959 44.8338 92.2276 44.7699C92.2459 44.7699 92.2642 44.7699 92.2825 44.7699H92.6029C91.0192 45.6636 89.9481 47.3597 89.9481 49.302C89.9481 52.1744 92.3008 54.5179 95.1845 54.5179C98.0681 54.5179 100.421 52.1744 100.421 49.302C100.421 47.1591 99.1117 45.3171 97.2625 44.5146L97.2717 44.4964C95.6056 43.7486 94.1592 43.9037 92.1635 44.1134C91.7973 44.1499 91.3945 44.1955 90.9734 44.2319V44.2228C90.7171 44.2228 90.4608 44.2411 90.2136 44.2775C89.3256 44.3322 87.9433 44.4052 86.3779 44.4052H78.0657H77.6446H73.4611H69.2226H68.8564H60.0865V64.3206C59.4274 66.4726 57.4226 68.114 55.729 68.114V68.7797H60.0865H60.6815H69.2134V50.5786L69.2226 49.3111C69.2226 46.767 70.9253 45.0617 73.4519 45.0617C75.7314 45.0617 77.3334 46.4478 77.6263 48.5907C77.6263 48.6089 77.6355 48.6363 77.6355 48.6545C77.6355 48.6545 77.6355 48.8825 77.6355 49.0284C77.6355 49.1287 77.6355 49.4114 77.6355 49.4114V68.7705H86.3047H86.7716H91.9163V68.1049C89.7468 68.1049 87.2659 66.2629 86.7716 63.7461Z" fill="white"/>
<path d="M42.2628 42.6454H41.5945C41.5945 46.2747 38.7475 49.2657 35.1499 49.5392H34.6372V49.5575C34.6281 49.5575 34.6189 49.5575 34.6189 49.5575V50.2231H35.1682C38.7475 50.4967 41.5762 53.4968 41.5762 57.1625H42.2354C42.2354 53.5333 45.0824 50.5423 48.6892 50.2687H49.2018V50.2505C49.211 50.2505 49.2202 50.2505 49.2293 50.2505V49.5848H48.6709C45.0915 49.3021 42.2628 46.3021 42.2628 42.6454Z" fill="white"/>
<path d="M55.7382 31.028H51.3532H36.5048H31.9459V15.6629H31.2776C31.2776 24.1342 23.5605 31.028 14.0673 31.028H12.3921V31.6937H14.0673H19.7065V63.7917C19.3128 66.2447 17.1798 68.1232 14.6166 68.1232H12.3921V68.7888H14.6166H19.7065H20.1001H25.8216H26.0504H31.6072H31.9367H37.0907H39.4799V68.1232H37.0907C34.2528 68.1232 31.9367 65.8161 31.9367 62.9893V61.7035V31.6846H36.4956C46.2084 31.6846 54.0171 39.162 55.0699 49.4662L55.729 49.4297V31.028H55.7382Z" fill="white"/>
<path d="M64.664 40.6757C67.3371 40.6757 69.5067 38.5145 69.5067 35.8518C69.5067 33.1892 67.3371 31.028 64.664 31.028C61.9909 31.028 59.8213 33.1892 59.8213 35.8518C59.8122 38.5145 61.9909 40.6757 64.664 40.6757Z" fill="white"/>
<path d="M119.983 67.2477C120.139 67.1383 120.304 67.038 120.46 66.9286C122.428 65.4513 123.517 63.4452 123.517 61.2932C123.517 58.9405 122.208 56.825 120.13 55.366V55.3569C120.13 55.3569 120.093 55.3386 120.048 55.3021C119.691 55.0559 119.315 54.828 118.922 54.6273C116.789 53.3416 112.422 50.688 110.719 49.53C109.932 49.0011 109.502 48.226 109.502 47.3506C109.502 45.8369 110.884 44.6058 112.578 44.6058C114.729 44.6058 116.706 45.1985 118.262 46.1834C118.299 46.2107 118.345 46.2472 118.391 46.2746C119.031 46.7487 120.899 48.381 121.613 51.5361C121.613 51.5908 121.622 51.6364 121.622 51.6911H121.65C121.741 52.1288 121.814 52.5847 121.851 53.0772L122.519 53.0498V43.3839H121.851C121.851 45.1074 120.78 46.001 119.718 46.001C119.388 46.001 119.068 45.9098 118.793 45.7457C118.766 45.7366 118.748 45.7183 118.72 45.7001C118.638 45.6362 118.583 45.5998 118.574 45.5998L118.565 45.6089C116.917 44.5693 114.83 43.9493 112.568 43.9493C107.213 43.9493 102.865 47.4235 102.865 51.7002C102.865 53.834 103.927 55.8128 105.849 57.29C105.922 57.3447 105.986 57.3903 106.06 57.445C106.06 57.445 106.069 57.4542 106.087 57.4542C106.325 57.6274 106.572 57.7916 106.838 57.9466C108.586 59.0864 112.852 61.8859 114.656 63.2172C115.452 63.8008 115.882 64.658 115.882 65.6337C115.882 67.2568 114.527 68.5152 112.797 68.5152H110.994H110.472V69.035C110.472 69.035 110.472 69.035 110.628 69.035C110.838 69.035 110.875 69.0441 111.03 69.0806C111.479 69.1809 111.946 69.6277 111.964 70.3025L111.983 71.1597V86.0324L111.955 87.4184C111.955 88.1571 111.891 88.6404 111.772 88.8683C111.653 89.0872 111.296 89.2331 110.71 89.2878L109.978 89.3151V89.7984H119.81V89.3151L119.086 89.2878C118.5 89.224 118.153 89.0781 118.024 88.8501C117.905 88.6221 117.841 88.1388 117.841 87.4184L117.814 86.0324V68.342C118.61 68.0502 119.324 67.6854 119.983 67.2477Z" fill="white"/>
<path d="M103.433 79.6129C103.433 80.315 103.753 80.9442 104.394 81.4913C105.035 82.0476 105.749 82.3211 106.536 82.3211C107.451 82.3211 108.138 82.0932 108.605 81.6464C109.072 81.1904 109.301 80.5977 109.301 79.8591C109.301 79.0384 108.998 78.318 108.403 77.707C107.808 77.0961 107.186 76.6219 106.527 76.2936C105.868 75.9654 105.172 75.7009 104.421 75.5094C103.671 75.3179 102.856 75.2267 101.968 75.2267C99.606 75.2267 97.6286 75.9107 96.0449 77.2785C94.4612 78.6463 93.6648 80.4518 93.6648 82.695C93.6648 84.92 94.4704 86.7164 96.0907 88.066C97.7019 89.4247 99.6609 90.0995 101.968 90.0995C105.465 90.0995 107.882 88.6131 109.236 85.6404L108.779 85.4033C108.358 86.4702 107.726 87.3456 106.902 88.0386C106.069 88.7316 105.099 89.0781 103.991 89.0781C102.435 89.0781 101.345 88.4034 100.732 87.0447C100.119 85.686 99.8074 84.0993 99.8074 82.2755C99.8074 81.5734 99.8532 80.8439 99.9447 80.0962C100.036 79.3393 100.183 78.6463 100.402 77.9988C100.613 77.3605 100.915 76.8134 101.29 76.3757C101.675 75.938 102.151 75.71 102.709 75.71C103.149 75.71 103.497 75.8103 103.735 76.011C103.973 76.2116 104.101 76.476 104.101 76.7952C104.101 77.1326 103.991 77.5611 103.771 78.0627C103.542 78.546 103.433 79.0657 103.433 79.6129Z" fill="white"/>
<path d="M157.178 77.2419C155.961 75.8832 154.395 75.2541 152.473 75.2085C151.082 75.172 150.23 75.4729 149.699 75.8103C149.269 76.0839 148.857 76.6127 148.637 77.014L148.701 74.634V68.3055H144.692C143.602 68.26 142.275 68.342 141.241 67.9682C141.103 67.9226 140.838 67.8314 140.7 67.7584C140.243 67.5213 139.913 67.2022 139.547 66.728C138.549 65.4696 137.963 63.655 137.963 61.4847V61.1473V50.0224C137.963 47.2868 140.06 45.0618 142.632 45.0618H145.909V44.3961H142.632H137.963V32.7241H137.295C137.295 39.162 131.958 44.3961 125.394 44.3961V45.0618H128.836V61.3662V61.6853V61.9498H128.846C129.01 65.6429 132.489 68.6794 136.975 69.2174C137.441 69.2721 138.293 69.336 138.778 69.336L141.469 69.3724C142.046 69.3724 142.403 69.6186 142.577 69.8284C142.751 70.0381 142.833 70.3846 142.833 70.9226V72.1537V85.0294C142.843 85.8683 142.843 86.4337 142.833 86.9261C142.779 88.3212 141.817 89.2605 140.408 89.2605C139.135 89.2605 138.229 88.5036 138.027 87.3364C138.027 87.3273 138.009 87.1814 138.009 87.0993C138.009 86.9078 138.009 86.8166 138.009 86.7437V79.2937V75.5094H129.926V75.9927L130.85 76.0565C131.509 76.1386 131.949 76.2936 132.169 76.5398C132.388 76.7769 132.553 77.2328 132.553 77.8985V79.2845V87.4185C132.37 87.8015 132.15 88.1024 131.821 88.4307C131.445 88.8045 130.969 89.0325 130.329 89.0325C129.752 89.0325 129.221 88.7954 128.928 88.3851C128.635 87.9747 128.47 87.4185 128.47 86.5978V85.3668V75.5185H120.396V76.0018L121.238 76.0656C121.806 76.1295 122.172 76.2571 122.346 76.476C122.52 76.6857 122.63 77.0596 122.63 77.6067V78.8377V85.5218C122.63 86.9443 123.17 88.0659 124.259 88.8684C125.33 89.6891 126.557 90.1085 127.948 90.0994C129.276 90.0994 130.008 90.0173 130.933 89.5249C131.619 89.1602 132.196 88.5948 132.663 87.8653V89.5705L132.507 89.7985C132.507 89.7985 137.213 89.7985 141.744 89.7985C142.952 89.7985 143.886 89.4793 144.344 88.8957C144.683 88.4671 144.811 87.4823 145.095 87.1996C145.662 87.8379 146.376 88.4854 147.237 89.1237C148.106 89.762 149.333 90.145 150.889 90.145C153.251 90.145 155.155 89.4976 156.702 88.0386C158.195 86.6252 159 84.8561 159 82.5855C159 80.3788 158.396 78.6006 157.178 77.2419ZM152.775 85.8683C152.711 86.9078 152.601 87.7924 152.262 88.5219C151.924 89.2422 151.42 89.607 150.761 89.607C150.084 89.607 149.571 89.2605 149.242 88.5675C148.912 87.8744 148.656 86.689 148.656 84.2452V82.2299C148.656 81.391 148.665 80.5429 148.683 79.6858C148.701 78.8286 148.756 78.1812 148.83 77.7252C148.912 77.2693 149.086 76.9593 149.37 76.6036C149.653 76.2571 150.102 75.9927 150.725 75.9927C151.448 75.9927 151.942 76.3301 152.281 76.9684C152.885 78.1082 152.784 80.2147 152.821 81.008C152.876 81.8013 152.848 84.692 152.775 85.8683Z" fill="white"/>
<path d="M103.726 69.0441C106.051 69.0441 107.946 67.1565 107.946 64.8403C107.946 62.5242 106.051 60.6366 103.726 60.6366C101.4 60.6366 99.5054 62.5242 99.5054 64.8403C99.4962 67.1565 101.391 69.0441 103.726 69.0441Z" fill="white"/>
<defs>
<linearGradient id="paint0_linear" x1="0.383523" y1="-7.67948" x2="27.07" y2="19.0232" gradientUnits="userSpaceOnUse">
<stop stop-color="#0000FF"/>
<stop offset="1" stop-color="#00FFFF"/>
</linearGradient>
<linearGradient id="paint1_linear" x1="-3.59564" y1="-3.69809" x2="23.0868" y2="23.0005" gradientUnits="userSpaceOnUse">
<stop stop-color="#0000FF"/>
<stop offset="1" stop-color="#00FFFF"/>
</linearGradient>
<linearGradient id="paint2_linear" x1="-8.00486" y1="0.706206" x2="18.6803" y2="27.4074" gradientUnits="userSpaceOnUse">
<stop stop-color="#0000FF"/>
<stop offset="1" stop-color="#00FFFF"/>
</linearGradient>
</defs>
</svg>
