<svg width="24" height="24" viewBox="0 0 24 24" fill="none" xmlns="http://www.w3.org/2000/svg">
<path fill-rule="evenodd" clip-rule="evenodd" d="M7.45618 3L16.5253 3.00005C18.0392 3.01705 19.4802 3.65794 20.5126 4.77344C21.5449 5.88895 22.0786 7.38171 21.9906 8.85897L21.9893 15.0959C22.0786 16.6183 21.5449 18.111 20.5126 19.2266C19.4802 20.3421 18.0392 20.9829 16.5168 21H7.45618C4.28665 21 2 18.4385 2 15.141V8.85897C2 5.56151 4.28665 3 7.45618 3ZM16.5084 4.52838L7.45618 4.52843C5.16279 4.52843 3.51744 6.37155 3.51744 8.85897V15.141C3.51744 17.6284 5.16279 19.4716 7.45618 19.4716L16.5084 19.4716C17.6073 19.4593 18.6532 18.9941 19.4026 18.1844C20.152 17.3747 20.5393 16.2911 20.4732 15.141L20.4745 8.81389C20.5393 7.70887 20.152 6.62533 19.4026 5.81562C18.6532 5.00592 17.6073 4.54072 16.5084 4.52838Z" fill="#65656B"/>
<path fill-rule="evenodd" clip-rule="evenodd" d="M12.0027 6.16663C10.2912 6.16663 8.90371 7.56 8.90371 9.27881C8.90371 10.9976 10.2912 12.391 12.0027 12.391C13.7142 12.391 15.1016 10.9976 15.1016 9.27881C15.1016 7.56 13.7142 6.16663 12.0027 6.16663ZM12.0027 7.0111C13.2498 7.0111 14.2608 8.02639 14.2608 9.27881C14.2608 10.5312 13.2498 11.5465 12.0027 11.5465C10.7556 11.5465 9.7446 10.5312 9.7446 9.27881C9.7446 8.02639 10.7556 7.0111 12.0027 7.0111ZM10.7344 13.6455C10.2807 13.677 9.82212 13.7417 9.3698 13.8387C8.49677 14.0185 7.79833 14.3778 7.50105 14.9749C7.38893 15.2084 7.33256 15.4584 7.33351 15.7115C7.33317 15.9628 7.38909 16.2132 7.49719 16.4422C7.78263 17.0324 8.39971 17.3664 9.23297 17.5516L9.38224 17.5827C9.82228 17.682 10.281 17.7489 10.7428 17.7802C10.7821 17.7918 10.8758 17.8025 10.9781 17.8077L11.0623 17.8109C11.1056 17.8119 11.1547 17.8121 11.2278 17.8121C11.8916 17.8486 12.5797 17.838 13.2645 17.7797C13.6295 17.7547 13.997 17.707 14.3613 17.6371L14.634 17.5804C15.5337 17.4029 16.2075 17.0654 16.5027 16.4429C16.7215 15.9807 16.7215 15.4444 16.5028 14.9824C16.2083 14.3614 15.5432 14.0267 14.6271 13.838C14.2677 13.7613 13.9025 13.7045 13.5347 13.6682L13.2658 13.6455C12.4236 13.5712 11.5766 13.5712 10.7344 13.6455ZM13.1922 14.4867L13.1996 14.4873C13.6218 14.517 14.0413 14.5763 14.4552 14.6646C15.1356 14.8048 15.5974 15.0372 15.7435 15.3452C15.8535 15.5776 15.8535 15.8475 15.7434 16.08C15.6069 16.3679 15.1922 16.5903 14.5928 16.7262L14.4615 16.754C14.0395 16.8482 13.6213 16.9088 13.2004 16.9377C12.5473 16.9932 11.8981 17.0033 11.2504 16.9682L11.0208 16.9643C10.9571 16.9611 10.9034 16.9549 10.8536 16.9449C10.4594 16.9152 10.1047 16.8681 9.76032 16.7998L9.55469 16.7563C8.87216 16.6225 8.40634 16.3891 8.25531 16.0769C8.20246 15.9649 8.17423 15.8385 8.1744 15.7105C8.17393 15.5833 8.20178 15.4597 8.25586 15.347C8.40271 15.0522 8.89636 14.7982 9.54203 14.6652C9.95893 14.5759 10.3783 14.5167 10.8002 14.4873C11.6012 14.4167 12.399 14.4167 13.1922 14.4867Z" fill="#65656B"/>
<path d="M9.3698 13.8387L9.42023 14.0835L9.42218 14.0831L9.3698 13.8387ZM10.7344 13.6455L10.7517 13.8949L10.7563 13.8945L10.7344 13.6455ZM7.50105 14.9749L7.27723 14.8634L7.27569 14.8667L7.50105 14.9749ZM7.33351 15.7115L7.58351 15.7119L7.58351 15.7106L7.33351 15.7115ZM7.49719 16.4422L7.2711 16.5489L7.27213 16.551L7.49719 16.4422ZM9.23297 17.5516L9.17874 17.7956L9.1819 17.7963L9.23297 17.5516ZM9.38224 17.5827L9.43727 17.3388L9.43331 17.338L9.38224 17.5827ZM10.7428 17.7802L10.8131 17.5403L10.7869 17.5327L10.7597 17.5308L10.7428 17.7802ZM10.9781 17.8077L10.9654 18.0574L10.9688 18.0575L10.9781 17.8077ZM11.0623 17.8109L11.0529 18.0607L11.0565 18.0608L11.0623 17.8109ZM11.2278 17.8121L11.2416 17.5621H11.2278V17.8121ZM13.2645 17.7797L13.2475 17.5302L13.2433 17.5306L13.2645 17.7797ZM14.3613 17.6371L14.4085 17.8826L14.4122 17.8818L14.3613 17.6371ZM14.634 17.5804L14.5856 17.3352L14.5831 17.3357L14.634 17.5804ZM16.5027 16.4429L16.7286 16.55L16.7286 16.5499L16.5027 16.4429ZM16.5028 14.9824L16.7287 14.8754L16.7287 14.8753L16.5028 14.9824ZM14.6271 13.838L14.5749 14.0825L14.5767 14.0828L14.6271 13.838ZM13.5347 13.6682L13.5592 13.4194L13.5558 13.4191L13.5347 13.6682ZM13.2658 13.6455L13.2439 13.8945L13.2447 13.8946L13.2658 13.6455ZM13.1996 14.4873L13.1799 14.7365L13.1821 14.7367L13.1996 14.4873ZM13.1922 14.4867L13.1703 14.7357L13.1725 14.7359L13.1922 14.4867ZM14.4552 14.6646L14.403 14.9091L14.4048 14.9095L14.4552 14.6646ZM15.7435 15.3452L15.9694 15.2383L15.9694 15.2381L15.7435 15.3452ZM15.7434 16.08L15.9693 16.1871L15.9693 16.187L15.7434 16.08ZM14.5928 16.7262L14.6446 16.9708L14.6481 16.97L14.5928 16.7262ZM14.4615 16.754L14.4097 16.5094L14.4071 16.51L14.4615 16.754ZM13.2004 16.9377L13.1833 16.6883L13.1792 16.6886L13.2004 16.9377ZM11.2504 16.9682L11.264 16.7184L11.2547 16.7183L11.2504 16.9682ZM11.0208 16.9643L11.0081 17.2141L11.0166 17.2143L11.0208 16.9643ZM10.8536 16.9449L10.9028 16.6998L10.8878 16.6968L10.8724 16.6956L10.8536 16.9449ZM9.76032 16.7998L9.70854 17.0444L9.71171 17.0451L9.76032 16.7998ZM9.55469 16.7563L9.60648 16.5117L9.60277 16.511L9.55469 16.7563ZM8.25531 16.0769L8.0292 16.1835L8.03025 16.1857L8.25531 16.0769ZM8.1744 15.7105L8.4244 15.7108L8.4244 15.7096L8.1744 15.7105ZM8.25586 15.347L8.03205 15.2356L8.03047 15.2389L8.25586 15.347ZM9.54203 14.6652L9.59248 14.9101L9.59441 14.9097L9.54203 14.6652ZM10.8002 14.4873L10.8176 14.7368L10.8222 14.7364L10.8002 14.4873ZM9.15371 9.27881C9.15371 7.69707 10.4302 6.41663 12.0027 6.41663V5.91663C10.1521 5.91663 8.65371 7.42293 8.65371 9.27881H9.15371ZM12.0027 12.141C10.4302 12.141 9.15371 10.8606 9.15371 9.27881H8.65371C8.65371 11.1347 10.1521 12.641 12.0027 12.641V12.141ZM14.8516 9.27881C14.8516 10.8606 13.5751 12.141 12.0027 12.141V12.641C13.8533 12.641 15.3516 11.1347 15.3516 9.27881H14.8516ZM12.0027 6.41663C13.5751 6.41663 14.8516 7.69707 14.8516 9.27881H15.3516C15.3516 7.42293 13.8533 5.91663 12.0027 5.91663V6.41663ZM14.5108 9.27881C14.5108 7.88932 13.3889 6.7611 12.0027 6.7611V7.2611C13.1107 7.2611 14.0108 8.16345 14.0108 9.27881H14.5108ZM12.0027 11.7965C13.3889 11.7965 14.5108 10.6683 14.5108 9.27881H14.0108C14.0108 10.3942 13.1107 11.2965 12.0027 11.2965V11.7965ZM9.4946 9.27881C9.4946 10.6683 10.6165 11.7965 12.0027 11.7965V11.2965C10.8947 11.2965 9.9946 10.3942 9.9946 9.27881H9.4946ZM12.0027 6.7611C10.6165 6.7611 9.4946 7.88932 9.4946 9.27881H9.9946C9.9946 8.16345 10.8947 7.2611 12.0027 7.2611V6.7611ZM9.42218 14.0831C9.86306 13.9886 10.3099 13.9255 10.7517 13.8949L10.717 13.3961C10.2515 13.4284 9.78118 13.4948 9.31741 13.5942L9.42218 14.0831ZM7.72485 15.0863C7.96952 14.5949 8.56973 14.2587 9.42023 14.0835L9.31936 13.5938C8.4238 13.7783 7.62713 14.1607 7.27726 14.8635L7.72485 15.0863ZM7.58351 15.7106C7.5827 15.4957 7.63047 15.2829 7.72642 15.0831L7.27569 14.8667C7.14739 15.1339 7.08241 15.4212 7.08351 15.7125L7.58351 15.7106ZM7.72327 16.3355C7.63091 16.1398 7.58322 15.926 7.58351 15.7119L7.08351 15.7112C7.08312 15.9997 7.14726 16.2865 7.27111 16.5489L7.72327 16.3355ZM9.2872 17.3075C8.48026 17.1282 7.9576 16.82 7.72225 16.3334L7.27213 16.551C7.60766 17.2448 8.31917 17.6046 9.17874 17.7956L9.2872 17.3075ZM9.43331 17.338L9.28404 17.3069L9.1819 17.7963L9.33116 17.8275L9.43331 17.338ZM10.7597 17.5308C10.3106 17.5003 9.86458 17.4353 9.43726 17.3389L9.32721 17.8266C9.77998 17.9288 10.2514 17.9974 10.7258 18.0297L10.7597 17.5308ZM10.9909 17.558C10.9442 17.5556 10.9006 17.5521 10.8657 17.548C10.826 17.5434 10.8109 17.5397 10.8131 17.5403L10.6725 18.0201C10.7437 18.041 10.8651 18.0523 10.9654 18.0574L10.9909 17.558ZM11.0717 17.561L10.9875 17.5579L10.9688 18.0575L11.0529 18.0607L11.0717 17.561ZM11.2278 17.5621C11.1548 17.5621 11.1082 17.5619 11.0681 17.5609L11.0565 18.0608C11.1029 18.0619 11.1546 18.0621 11.2278 18.0621V17.5621ZM13.2433 17.5306C12.5698 17.5879 11.8934 17.5983 11.2416 17.5625L11.2141 18.0617C11.8898 18.0989 12.5895 18.0881 13.2858 18.0288L13.2433 17.5306ZM14.3142 17.3915C13.9597 17.4596 13.6023 17.506 13.2475 17.5303L13.2816 18.0291C13.6568 18.0034 14.0343 17.9544 14.4085 17.8826L14.3142 17.3915ZM14.5831 17.3357L14.3105 17.3923L14.4122 17.8818L14.6848 17.8252L14.5831 17.3357ZM16.2768 16.3358C16.0343 16.8472 15.4638 17.1619 14.5856 17.3352L14.6823 17.8257C15.6036 17.644 16.3807 17.2835 16.7286 16.55L16.2768 16.3358ZM16.2768 15.0894C16.4635 15.4836 16.4635 15.9414 16.2767 16.3359L16.7286 16.5499C16.9795 16.02 16.9795 15.4051 16.7287 14.8754L16.2768 15.0894ZM14.5767 14.0828C15.4732 14.2675 16.035 14.5794 16.2769 15.0895L16.7287 14.8753C16.3817 14.1434 15.6131 13.7859 14.6776 13.5931L14.5767 14.0828ZM13.5102 13.917C13.8688 13.9524 14.2247 14.0077 14.5749 14.0825L14.6793 13.5935C14.3108 13.5148 13.9363 13.4566 13.5592 13.4194L13.5102 13.917ZM13.2447 13.8946L13.5136 13.9173L13.5558 13.4191L13.2869 13.3964L13.2447 13.8946ZM10.7563 13.8945C11.5839 13.8215 12.4163 13.8215 13.2439 13.8945L13.2878 13.3964C12.431 13.3209 11.5692 13.3209 10.7124 13.3964L10.7563 13.8945ZM13.2194 14.2381L13.212 14.2375L13.1725 14.7359L13.1799 14.7365L13.2194 14.2381ZM14.5074 14.4201C14.0821 14.3293 13.651 14.2684 13.2172 14.2379L13.1821 14.7367C13.5926 14.7656 14.0005 14.8232 14.403 14.9091L14.5074 14.4201ZM15.9694 15.2381C15.8636 15.0152 15.6584 14.8471 15.4154 14.7203C15.1692 14.5919 14.8595 14.4927 14.5057 14.4198L14.4048 14.9095C14.7313 14.9767 14.9927 15.0638 15.1841 15.1636C15.3785 15.265 15.4772 15.3673 15.5176 15.4524L15.9694 15.2381ZM15.9693 16.187C16.1115 15.8868 16.1115 15.5383 15.9694 15.2383L15.5175 15.4522C15.5954 15.6168 15.5955 15.8082 15.5174 15.973L15.9693 16.187ZM14.6481 16.97C14.9624 16.8987 15.2402 16.8023 15.463 16.6787C15.6834 16.5564 15.8702 16.396 15.9693 16.1871L15.5175 15.9729C15.48 16.0519 15.3913 16.1466 15.2204 16.2415C15.0518 16.335 14.8226 16.4177 14.5375 16.4824L14.6481 16.97ZM14.5133 16.9986L14.6446 16.9708L14.541 16.4816L14.4097 16.5094L14.5133 16.9986ZM13.2175 17.1871C13.6512 17.1574 14.0818 17.0949 14.516 16.998L14.4071 16.51C13.9972 16.6015 13.5915 16.6603 13.1833 16.6883L13.2175 17.1871ZM11.2369 17.2179C11.8962 17.2535 12.557 17.2433 13.2216 17.1868L13.1792 16.6886C12.5376 16.7432 11.8999 16.753 11.264 16.7186L11.2369 17.2179ZM11.0166 17.2143L11.2462 17.2182L11.2547 16.7183L11.0251 16.7144L11.0166 17.2143ZM10.8044 17.19C10.8691 17.203 10.9355 17.2103 11.0081 17.214L11.0336 16.7146C10.9787 16.7118 10.9377 16.7068 10.9028 16.6998L10.8044 17.19ZM9.71171 17.0451C10.0671 17.1155 10.4318 17.1638 10.8348 17.1942L10.8724 16.6956C10.487 16.6665 10.1424 16.6207 9.80894 16.5546L9.71171 17.0451ZM9.50291 17.0009L9.70854 17.0444L9.81211 16.5552L9.60647 16.5117L9.50291 17.0009ZM8.03025 16.1857C8.1385 16.4095 8.34516 16.5785 8.59085 16.7056C8.83933 16.8341 9.15104 16.9319 9.50661 17.0016L9.60277 16.511C9.27581 16.4469 9.01335 16.3612 8.82052 16.2614C8.62491 16.1603 8.52314 16.0565 8.48037 15.968L8.03025 16.1857ZM7.9244 15.7102C7.92418 15.8745 7.96031 16.0375 8.02921 16.1835L8.4814 15.9702C8.4446 15.8922 8.42428 15.8024 8.4244 15.7108L7.9244 15.7102ZM8.03047 15.2389C7.9599 15.3859 7.92379 15.5468 7.9244 15.7114L8.4244 15.7096C8.42406 15.6197 8.44366 15.5335 8.48124 15.4552L8.03047 15.2389ZM9.49159 14.4204C9.15195 14.4903 8.84369 14.5937 8.59555 14.7242C8.35364 14.8514 8.13958 15.0197 8.03208 15.2356L8.47964 15.4585C8.51899 15.3795 8.62518 15.2735 8.82823 15.1667C9.02504 15.0632 9.28645 14.9731 9.59248 14.9101L9.49159 14.4204ZM10.7829 14.2379C10.3491 14.2681 9.91804 14.329 9.48965 14.4208L9.59441 14.9097C9.99982 14.8228 10.4075 14.7652 10.8176 14.7367L10.7829 14.2379ZM13.2142 14.2377C12.4063 14.1664 11.5938 14.1664 10.7783 14.2383L10.8222 14.7364C11.6086 14.667 12.3917 14.6671 13.1703 14.7357L13.2142 14.2377Z" fill="#65656B"/>
</svg>
