<svg width="32" height="28" viewBox="0 0 32 28" fill="none" xmlns="http://www.w3.org/2000/svg">
<path d="M29.7773 0.74529L1.24119 11.5502C-0.319281 12.0001 -0.269556 13.5417 0.883632 13.9134L8.03245 16.144L10.7674 24.5313C11.0989 25.45 11.3713 25.7958 11.9396 25.8029C12.5363 25.81 12.766 25.5921 13.384 25.0451C14.111 24.3632 15.2144 23.2905 16.962 21.5927L24.402 27.0887C25.7707 27.844 26.7582 27.4533 27.0991 25.8171L31.7616 2.7533C32.2636 0.747657 31.0868 0.150936 29.7773 0.74529ZM9.15723 15.6325L25.4132 5.43382C26.2135 4.89629 26.4645 5.49538 26.1046 5.90977L12.6121 18.0455L11.9206 24.1027L9.15723 15.6325Z" fill="white"/>
</svg>
